<svg xmlns="http://www.w3.org/2000/svg"
     viewBox="0 0 239.48 58.31"
     class="svg-logo-header-wilder-journal {{ include.class }}"
     alt="{{ include.alt | default: 'Wilder Journal by Platoniq'}}">
  <path class="cls-1" d="M157.71 45a3.48 3.48 0 0 1 2.95 1.3l.13.19v-1.21h2.64v13h-2.78v-4.6a3.71 3.71 0 0 1-3.19 1.47c-1.87 0-4.3-1.29-4.3-5 0-2.63 1.47-5.15 4.55-5.15Zm-26.38-.71c3.2 0 5.26 2.19 5.26 5.53s-2.06 5.52-5.26 5.52-5.25-2.19-5.25-5.52 2.06-5.51 5.25-5.51Zm-17.24 0c2 0 4.32.44 4.45 2.77v5.66a6.14 6.14 0 0 0 .3 2.23l.05.1h-2.83a4.29 4.29 0 0 1-.19-1 4.6 4.6 0 0 1-3.42 1.3c-1.93 0-3.46-1-3.46-3.15 0-2.37 1.73-2.94 3.46-3.18s3.3-.2 3.3-1.38-.83-1.42-1.81-1.42a1.6 1.6 0 0 0-1.83 1.41v.17h-2.79c.15-2.68 2.49-3.49 4.77-3.49Zm9.54-2.86v3.14h2v1.93h-2v5.19c0 1 .24 1.21 1.18 1.21a4.73 4.73 0 0 0 .65 0h.21v2.25a10.49 10.49 0 0 1-1.63.1c-1.65 0-3.1-.37-3.19-2.29v-6.44h-1.69v-1.93h1.69v-3.14Zm28.06 3.14v10.5h-2.79V44.59Zm-8.09-.28c2.89 0 3.67 1.63 3.71 4.11v6.65h-2.79v-5.9c0-1.72-.49-2.57-1.78-2.57-1.46 0-2.12.81-2.16 2.77v5.72h-2.79V44.59h2.65v1.46h.06a3.57 3.57 0 0 1 3.1-1.74Zm-35.75-3.69v14.47h-2.79V40.6Zm-8.74 0c3.49 0 4.85 2.29 4.85 4.64a4.37 4.37 0 0 1-4.59 4.64h-3.5v5.19h-3.09V40.6Zm16.65 9.34a5.34 5.34 0 0 1-2.32.61c-.86.18-1.65.49-1.65 1.54s.8 1.34 1.71 1.34a2.12 2.12 0 0 0 2.26-2.43Zm15.57-3.46c-1.89 0-2.46 1.68-2.46 3.36s.57 3.35 2.46 3.35 2.47-1.69 2.47-3.35-.57-3.36-2.47-3.36Zm27.09.54c-1.81 0-2.47 1.53-2.47 3.09s.58 3.08 2.41 3.08 2.43-1.46 2.43-3-.63-3.19-2.37-3.19Zm-73-6.08L87.15 45l1.7-4.05h1l-3.35 7.76h-1l1.13-2.61-2.23-5.16Zm12.81 2.13h-2.36v4.34h2.39c1.44 0 2.71-.33 2.71-2.17s-1.27-2.17-2.71-2.17Zm-17.81-4.69v3.16l.24-.26.65-.43h1l1.11.54.73 1 .23.8v1.34l-.23.83-.73 1-1.1.64h-1l-.64-.25-.3-.2v.36h-.89v-8.53Zm1.72 3.4h-.71l-.7.52-.31.48v2.56l.22.29.41.29.44.14h.69l.63-.36.52-.72.13-.53v-1.09l-.13-.51-.52-.74Zm69.55-1.18V43h-2.79v-2.4ZM223 9.05l2.76.7L229 12l1.16 2.89v11.73l1.73 2.52-3.55 2.56-1.8-2.7-.5.53-3.79 1.95h-2.64l-2.8-.87-2-1.2-2.42-3.41v-2.56l.62-2.86 3.09-3.14 4.05-1h2.72l2.72.91.16.12v-1.8l-.33-.83-1.4-.95-1.81-.46h-2.64l-1.36.5-1.12.74-1.15 1.12-3.05-3.18 1.65-1.53 1.85-1.2 2.77-.83Zm-95.5-7.27v21.66l-1 3.88-3 3-2.89 1.16h-3.01l-2.89-1.16-3.09-3-1-4.26 4.38-1.19.66 3.1 1.61 1.69 1.11.37h1.4l1-.41 1.7-1.7.53-2.23V1.78ZM72.71 0v31.17h-4.37V30l-2.51 1.5H62l-4.29-2-2.81-3.79-.91-3v-4.77l.91-3.1 2.76-3.72 4.21-2.07h3.63L68 10l.33.25V0Zm15.66 9.05 4.21 2.07 2.72 3.72 1 2.85v5H81.24l.41 1 1.73 2.44 2.15 1h2.1l2.47-.66 2.52-1.53 2.31 3.56-3.18 2.11-3.63.91h-3.46l-4.21-2.07-2.76-3.72-.86-3v-4.79l.86-3.1 2.76-3.72 4.21-2.07Zm69.63.33v16l.95 1.28 2 .54h1.9l2.55-1.74 1-1.36V9.38h4.42v21.79h-4.38v-1.33l-2.84 1.66h-3.3l-3.92-1-2.76-3.59V9.38Zm-15-.33 4.2 2.07 2.19 3.18.74 3.56v4.87l-.74 3.56-2.19 3.18-4.2 2h-4.37l-4.17-2-2.18-3.18-.79-3.56v-4.87l.79-3.56 2.18-3.18 4.17-2.07Zm59.47 0 3.84 1 2.6 3.51v17.61h-4.42v-16l-.78-1.12-2.06-.66h-2.19l-2.55 1.7-1 1.4v14.68h-4.42V9.38h4.42v1.33l2.84-1.66Zm37.06-9v31.12h-4.42V0Zm-53.18 9 2.52.7-1.08 4.25-2.1-.58h-1.4l-1.9.91L181 16l-.83 1.78v13.39h-4.41V9.38h4.41V11l.5-.49 2.89-1.41ZM4.62 1.78 9.77 22.4 15.75 3h3.3L25 22.4l5.19-20.62h4.61l-7.5 29.39h-4l-5.86-19-5.85 19h-4L0 1.78Zm105.6 7.27 2.51.7-1.07 4.25-2.1-.58h-1.4l-1.9.91-1.44 1.67-.82 1.73v13.44h-4.42V9.38H104V11l.5-.49 2.88-1.41Zm-68.95.33v21.79h-4.41V9.38ZM50.41 0v31.17H46V0Zm91.76 13.43h-2.85l-1.94 1-1 1.44-.49 2.44v3.8l.49 2.57 1 1.36 2.1 1.08h2.72l2.15-1.08.91-1.4.53-2.53v-3.8l-.53-2.4-1-1.48ZM65 13.39h-2.39l-2.06 1.16-1.74 2.36-.41 1.57v3.72l.41 1.44 1.7 2.4 2.26 1.07H65l2.27-1.57 1-1.48v-8.52l-.66-.83-1.32-.82Zm157.29 7.4h-1.61l-2.23.62-1.32 1.36-.28 1.08v.83l1 1.48.74.42 1.61.53h1.15l2.68-1 1.4-1.49.33-.91v-1.18l-.66-.71-.94-.45Zm-134.7-7.36h-2.23l-2 1.08-1.77 2.4-.29 1.36h10.54L91.38 17l-1.69-2.36ZM42 0v6h-5.85V0Z" data-name="logo/wilder-journal--trz"/>
</svg>
